<?xml version="1.0" standalone="no"?><svg xmlns="http://www.w3.org/2000/svg" viewBox="0 0 1440 320"><path fill="#800000" fill-opacity="1" d="M0,288L18.5,256C36.9,224,74,160,111,138.7C147.7,117,185,139,222,170.7C258.5,203,295,245,332,250.7C369.2,256,406,224,443,218.7C480,213,517,235,554,213.3C590.8,192,628,128,665,128C701.5,128,738,192,775,208C812.3,224,849,192,886,186.7C923.1,181,960,203,997,213.3C1033.8,224,1071,224,1108,192C1144.6,160,1182,96,1218,90.7C1255.4,85,1292,139,1329,165.3C1366.2,192,1403,192,1422,192L1440,192L1440,320L1421.5,320C1403.1,320,1366,320,1329,320C1292.3,320,1255,320,1218,320C1181.5,320,1145,320,1108,320C1070.8,320,1034,320,997,320C960,320,923,320,886,320C849.2,320,812,320,775,320C738.5,320,702,320,665,320C627.7,320,591,320,554,320C516.9,320,480,320,443,320C406.2,320,369,320,332,320C295.4,320,258,320,222,320C184.6,320,148,320,111,320C73.8,320,37,320,18,320L0,320Z"></path></svg>